<svg width="64" height="54" viewBox="0 0 64 54" fill="none" xmlns="http://www.w3.org/2000/svg">
<g clip-path="url(#clip0_676_48)">
<path fill-rule="evenodd" clip-rule="evenodd" d="M23.925 50.1341C22.0237 50.1341 22.3649 49.4028 21.6824 47.5989L16.1245 29.2677L50.6418 7.7188L54.6883 8.79137L51.3243 17.957L23.925 50.1341Z" fill="#EDEBCC" style="fill:#EDEBCC;fill:color(display-p3 0.9289 0.9206 0.8002);fill-opacity:1;"/>
<path fill-rule="evenodd" clip-rule="evenodd" d="M23.9248 50.1341C25.3874 50.1341 26.0212 49.4516 26.85 48.6715C28.1176 47.4527 44.4012 31.6079 44.4012 31.6079L34.4067 29.1702L25.1436 35.0206L23.9248 49.6466V50.1341Z" fill="#CCC9A9" style="fill:#CCC9A9;fill:color(display-p3 0.7988 0.7900 0.6628);fill-opacity:1;"/>
<path fill-rule="evenodd" clip-rule="evenodd" d="M25.1398 35.0092L48.4966 52.6206C51.178 54.0832 53.1281 53.3519 53.8107 50.1341L63.4151 4.89115C64.3901 0.942142 61.9037 -0.812972 59.3198 0.357105L2.96108 22.101C-0.890429 23.6611 -0.841676 25.8063 2.27853 26.7326L16.7582 31.2666L50.2517 10.1565C51.8118 9.18144 53.2744 9.71772 52.1043 10.7903L25.1398 35.0092Z" fill="#FEFCDF" style="fill:#FEFCDF;fill:color(display-p3 0.9961 0.9882 0.8745);fill-opacity:1;"/>
</g>
<defs>
<clipPath id="clip0_676_48">
<rect width="64" height="54" fill="white" style="fill:white;fill-opacity:1;"/>
</clipPath>
</defs>
</svg>
