<svg class="svg-menu-opener" xmlns="http://www.w3.org/2000/svg" xmlns:xlink="http://www.w3.org/1999/xlink" x="0px" y="0px" viewBox="0 0 32 26.5" style="user-select: auto;" xml:space="preserve">
<path class="st0" d="M31.3,0.8c1.2,1.4-0.4,3.5,0.1,5.5c-0.6,0.2-1,0.5-1.9,0.4c-0.2,0-0.7,0-1-0.1c0,0-0.1-0.1-0.1-0.1&#10;&#9;c-0.4-0.1-0.9,0.1-1.4,0.1c-0.7,0-1.4-0.3-2.2-0.4c-0.3,0-0.7,0.1-1,0.1c-0.4,0-0.9-0.2-1.3-0.2c-0.5,0-1,0-1.5,0&#10;&#9;C16.1,5.8,10.2,6.2,5.8,6.2c-0.7,0-1.4,0-2.2,0.1C2,6.4,0.9,6.3,0,5.7C0.2,4.6,0.5,3,0,1.6c0.4-0.4,1-0.5,1.8-0.7&#10;&#9;c0.4-0.1,0.9-0.3,1.5-0.3c0.2,0,0.4,0.1,0.6,0.1c0.8,0,1.9-0.2,3-0.3c1.1,0,3,0.2,3.9-0.1c1.8,0.2,3.7-0.1,5.7,0.1&#10;&#9;c0.5,0,1,0.1,1.5,0.1c0.6,0,1.1-0.2,1.7-0.1c0.5,0,1,0.3,1.6,0.4c1.3,0.2,2.6,0.1,3.8,0.4C26.8,0.7,29.4,1,31.3,0.8z M14,2.1&#10;&#9;c-0.4,0.8-1.1,1.5-1.4,2.4c0.4-0.1,0.5,0.1,0.8,0.1c0.4-0.9,1.1-1.5,1.4-2.5C14.6,2.1,14.3,2.1,14,2.1z M11,2.2&#10;&#9;C10.2,2.8,9.5,3.7,9,4.6c0.4,0,0.6,0.1,1.1,0.1c0.5-0.1,0.2-0.8,0.8-0.8c0.1-0.2-0.3-0.1-0.2-0.3c0.6-0.3,0.6-1,0.9-1.4&#10;&#9;C11.4,2.2,11.2,2.2,11,2.2z M15.6,4.4c0.3,0.2,0.7,0,0.9-0.1c-0.2-0.6,0.9-1,0.7-1.6c0.2-0.1,0.6-0.4,0.3-0.5c-0.1,0.2-0.3,0-0.5,0&#10;&#9;C16.5,3,16.3,3.8,15.6,4.4z M5.5,2.6c0.3,0,0.3-0.1,0.3-0.3C5.5,2.3,5.4,2.4,5.5,2.6z M19.9,2.3c-0.4,0.8-1.1,1.2-1.1,2&#10;&#9;c0.2,0,0.5,0.1,0.8,0.1c0.2-0.5,0.7-1.2,0.3-1.7c0.2-0.1,0.3-0.2,0.4-0.4C20.2,2.3,20.1,2.3,19.9,2.3z M2.8,3c0.4,0,0.5-0.2,0.4-0.5&#10;&#9;C2.7,2.4,2.6,2.7,2.8,3z M28.5,2.7c0.1,0,0.5,0.1,0.5-0.1C28.8,2.5,28.6,2.5,28.5,2.7z M22.3,3.5C22.8,3.4,22.9,3,23,2.6&#10;&#9;C22.3,2.5,22.7,3.3,22.3,3.5z M24.8,4.2c0.6,0,0.6-0.5,0.7-0.8c0,0,0.2,0,0.2,0c0.1-0.2-0.2-0.6,0.2-0.6c0-0.1-0.1-0.2-0.2-0.2&#10;&#9;C25.2,3,25,3.6,24.8,4.2z M4,4.6c0.7-0.2,0.6-1,1.3-1.2c-0.1-0.3,0.3-0.5,0-0.7C4.9,3.3,4.5,3.9,4,4.6z M7.6,3.2&#10;&#9;c0.1,0,0.2-0.3,0-0.4C7.7,3,7.3,3.2,7.6,3.2z M22.3,3.6C22,3.9,22.5,4,22.3,3.6L22.3,3.6z M6.6,4.6c-0.1-0.1,0.3-0.2,0-0.3&#10;&#9;C6.6,4.3,6.3,4.5,6.6,4.6z M22.3,4.3c-0.1,0-0.1-0.1-0.3-0.1C21.8,4.4,22.3,4.5,22.3,4.3z" style="user-select: auto;"/>
<path class="st0" d="M31,9.6c1.1,0.3,0.5,1.4,0.5,2c0,0.2,0.2,0.4,0.2,0.7c0,0.4-0.1,0.9-0.1,1.4c0,0.7,0.2,1.2,0,1.8&#10;&#9;c-0.9,0.4-2,0.2-3.1,0.2c-0.3,0-0.5,0.1-0.9,0.1C26.2,16,24.4,15.7,23,16c-2.2-0.3-4.5,0.1-6.7-0.1c-0.5,0-1-0.2-1.9-0.2&#10;&#9;c-0.6,0-1.2-0.2-1.7-0.1c-0.2,0-0.4,0-0.5,0c0,0-0.2,0.1-0.2,0.1c-0.2,0-0.5-0.2-0.7-0.2c-0.3,0-0.6,0-1,0c-0.3,0-0.5-0.1-0.7-0.1&#10;&#9;c-0.3,0-0.6,0.2-1,0.1c-0.3,0-0.6-0.1-0.9-0.1c-1.1,0-2.4,0.1-3.7,0.1c-0.8,0-1.6,0-2.3,0.2c-0.7-0.2-1.1-0.6-1.6-0.9&#10;&#9;c0.3-0.7-0.1-1.8,0.3-2.3c0.1-0.3-0.2-0.2-0.2-0.4c0.6-0.6,0.3-1.2,0.4-2c0.5-0.2,1-0.4,1.2-0.6c2.2-0.6,4.7-0.2,7.1-0.2&#10;&#9;c1.3,0,2.4-0.2,3.5-0.1C13,9.3,14,9.5,15.1,9.6c0.8,0,1.6,0,2.3,0c1.2,0,2.8,0,4.5,0.1c1.3,0.1,2.6,0.2,3.9,0.1c0.3,0,0.6-0.1,1-0.1&#10;&#9;C28.2,9.6,29.7,9.8,31,9.6z M4.2,11c0-0.1,0-0.2-0.2-0.1c-1.4,0.3-1.4,1.2-1.2,2.3C3.3,12.4,3.6,11.6,4.2,11z M4.4,14&#10;&#9;c0.6,0,1.2,0,1.5-0.1c-0.2,0-0.3-0.1-0.3-0.1C5.8,13.5,5.7,13,6.3,13c0.1-0.9,1-1.3,1.2-2.2c-0.3,0-0.4,0.2-0.6,0&#10;&#9;C6.1,11.7,5.2,12.9,4.4,14z M12.7,10.8c0,0.1-0.2,0.1-0.3,0.1c-0.3,0.6-1,0.9-1.2,1.6c-0.3,0.2-0.9,0.9-0.1,1c0.7-0.9,1.5-1.7,2-2.7&#10;&#9;C12.9,10.9,12.8,10.8,12.7,10.8z M18.4,11.1c-0.6,1-1.8,1.9-1.7,3.1c0.3,0,0.4,0.1,0.7,0.1c0-0.3-0.6-0.2-0.4-0.5&#10;&#9;c0.2-0.1,0.4,0,0.6-0.1c0.2-1.1,0.8-1.6,1.4-2.5C18.9,11.1,18.7,11.1,18.4,11.1z M25.8,11.2c-0.1,0.5-0.6,1.1-0.7,1.7&#10;&#9;c-0.2,0.7-0.5,1.1-0.5,1.5c0.4-0.1,0.4,0,0.9-0.1c0.4-1,1.1-2,1.4-3.2C26.3,11.1,26.2,11.3,25.8,11.2z M15.4,11.5&#10;&#9;c0-0.1,0.2-0.2,0-0.2C15.4,11.4,15.2,11.5,15.4,11.5z M13.9,13.3c0.3,0.1,0.2-0.2,0.3-0.2C14,13,13.9,13.1,13.9,13.3z M22.2,13.6&#10;&#9;c0.3,0.1,0.3-0.3,0.1-0.3C22.2,13.4,22.1,13.4,22.2,13.6z M13.8,14.1c-0.1-0.3,0.3-0.3,0.3-0.6c-0.1,0-0.1-0.1-0.2-0.1&#10;&#9;C13.8,13.5,13.3,13.9,13.8,14.1z M8.2,13.9c0-0.1,0.3,0,0.3-0.1c-0.2,0-0.1-0.2-0.3-0.2C8.3,13.8,7.9,13.9,8.2,13.9z M28.2,14.2&#10;&#9;c0.3,0,0.5,0,0.7-0.1c-0.1-0.2,0.2-0.6-0.2-0.5C28.6,13.9,28.3,14,28.2,14.2z" style="user-select: auto;"/>
<path class="st0" d="M11.5,19c4.4,0,9.7,0.3,14,0.8c1.9-0.1,3.3-0.2,5.2-0.3c0.3,0.1,0.5,0.4,0.7,0.6c-0.7,1.9,0.2,4-0.1,5.7&#10;&#9;c-0.5,0.1-0.9,0.2-1.2,0.4c-0.5,0-1-0.2-1.5-0.2c-0.5,0-1,0.2-1.6,0.2c-1.2,0.1-2.7-0.1-4.2,0.1c-0.4,0-0.9,0-1.3,0.1&#10;&#9;c0,0-0.2,0.1-0.2,0.1c-3.4,0.1-7.4-0.3-10.8-0.4c-1.2,0-2.5,0-3.5,0.1c-0.8,0.1-1.6,0-2.3,0c-0.3,0-0.6,0.2-1,0.2&#10;&#9;c-0.4,0-0.8-0.1-1.2-0.1c-0.5,0-0.7,0.3-1.2,0.2C1,26.5,0.7,26,0.2,25.9c-0.1-2.1,0.4-3.7,0.4-6c0.4-0.1,0.6-0.4,1.2-0.4&#10;&#9;c0.4-0.3,0.8-0.7,1.5-0.8c0.5-0.1,1,0.1,1.6,0.1c1.2,0,2.5-0.2,3.5,0c0.4-0.3,1.5-0.6,2.1-0.4C11.2,18.4,11.1,18.8,11.5,19z&#10;&#9; M7.1,20.1c-1.3,0.9-2.3,2.2-3,3.6c0.2,0.1,0.1,0.3,0.2,0.4c0,0.2-0.5,0.1-0.4,0.4c0.3,0.1,1.2,0.1,1.5,0c0-0.2-0.2-0.2-0.5-0.2&#10;&#9;c0.1-0.4-0.6-0.2-0.4-0.6c0.2-0.3,0.9-0.3,1.3-0.4c-0.1-0.8,1.1-1.3,1.2-2.2c0.5-0.1,0.7-0.6,0.5-0.9C7.2,20.2,7.1,20.2,7.1,20.1z&#10;&#9; M11.8,20.3c-0.5,0.6-0.8,1.3-1.4,1.7c0,0.6-0.2,1-0.4,1.4c0.5,0,0.9,0,1.4,0c0.5-1.1,1.3-2,1.8-3.1C12.6,20.4,12.3,20.3,11.8,20.3z&#10;&#9; M3.2,20.8c0.3,0,0.4-0.1,0.4-0.3c-0.1,0-0.3,0-0.4,0C3.2,20.6,3.2,20.7,3.2,20.8z M13.9,23.5c0.7,0.1,1.2-0.1,1.5-0.3&#10;&#9;c0.4-1.1,0.7-1.8,1.4-2.6c-0.4,0-0.8,0-1.1-0.1C15.2,21.5,14.4,22.4,13.9,23.5z M18,23.2c0.6,0.1,0.8-0.2,1.1-0.3&#10;&#9;c-0.1-0.7,0.8-1.4,1-2.2C18.4,20.9,18.6,22.3,18,23.2z M21.8,22.8c1.5,0,1.7-1,1.8-1.7C22,20.7,22.1,22.1,21.8,22.8z M26.4,21.1&#10;&#9;c-0.4,0.2-0.2,0.6-0.3,0.9c0,0.1-0.3,0.2-0.3,0.3c-0.2,0.4-0.2,0.4-0.3,0.7c-0.1,0.2-0.6,0.7-0.2,0.9c0.3-0.6,0.8-0.7,0.9-1.5&#10;&#9;c0.6-0.3,0.8-0.8,1.1-1.2C26.8,21.2,26.8,21,26.4,21.1z M27.1,24.5c0.6,0,0.8-0.1,1.3,0c0.6-0.3,0.1-0.5,0.1-0.7c0,0,0.2,0,0.2-0.1&#10;&#9;c0-0.1-0.1-0.5-0.2-0.6C28.1,23.6,27.7,24.1,27.1,24.5z M24.8,24.3c0,0,0-0.1,0.1-0.1c0-0.1,0-0.2-0.2-0.1&#10;&#9;C24.7,24.1,24.7,24.3,24.8,24.3z M20.2,24.8c0.7,0,1.4,0.2,1.8-0.1c-0.2,0,0-0.4-0.1-0.5C20.9,24.1,20.5,24.4,20.2,24.8z M25.2,24.5&#10;&#9;c-0.2-0.1-0.3-0.2-0.6-0.1C24.5,24.8,25,24.7,25.2,24.5z M18.7,24.5c-0.5,0.1-1.4,0-1.6,0.4c0.9-0.1,2,0,3-0.1&#10;&#9;C19.5,24.7,19.1,24.6,18.7,24.5z" style="user-select: auto;"/>
</svg>